<svg id="Capa_1" data-name="Capa 1" xmlns="http://www.w3.org/2000/svg" viewBox="0 0 1080 1080"><defs><style>.cls-1{fill:#fff;}</style></defs><path class="cls-1" d="M928.88,732.32C846.29,729.43,814,669,807.38,654.46L806,651.3,583.86,128.6l-10.55-23.4a2.74,2.74,0,0,0-2.51-1.63H403.27c-25.15-.82-46.32-8.93-56.71-13.69A2.75,2.75,0,0,0,343,93.66c23.89,47.43,76.22,61.41,78.82,62.08l.2,0c31,5.06,39.1,25,39.1,25l36.14,85q-7.61-.58-15.44-.59c-57,0-106.15,23.75-128.36,57.9a2.13,2.13,0,0,0,2.71,3.09c33.06-16.57,77.5-26.72,126.37-26.72q15.11,0,29.57,1.27L665.7,662.12a3.33,3.33,0,0,1,.16.51l2.41,11.5c-10.36-8-21-15.56-31.6-22.55-69.18-45.68-153.07-66.69-215-123-21.94-19.92-42.16-45-44.11-74.6C373.24,388.48,447.88,337,500.44,313c-49.15-5.46-101.59-1-144.43,25.64-43.88,27.31-72.24,77.33-70.8,129.35.57,21,5.74,41.67,14.08,61L253.84,639.42c-32.67,80.13-45.61,86.3-105.4,95.54v25.89H379.1V734.71H349.61c-67.53-7.39-74.59-18.23-55.09-72.48,9.43-28.79,19.27-57.2,30.79-88.73,36.74,49.66,90.36,87.46,144.23,115.93C491.46,701,514.23,711,535.59,723.57a310.46,310.46,0,0,1,76.09,63.16c15.07,17.26,28.62,37.21,31.52,59.94,3.09,24.23-6.57,48.78-21.63,68C605.18,935.62,582.69,952,560,965.49a343.22,343.22,0,0,1-35.33,18.29c-3,1.36-9.59,5.75-13.08,5.49,51.13,3.84,107.12-1.93,154.31-22.89,52.83-23.47,90.19-69.7,94.47-128.18,2-27.88-4-53.25-15.25-76.25H928.81a2.75,2.75,0,0,0,2.75-2.75V735.06A2.75,2.75,0,0,0,928.88,732.32Z"/><path class="cls-1" d="M548.31,961.47q8.21-5,16.09-10.57a95,95,0,0,0,8.08-5.86c.55-.48,4.58-5.31,4.68-5.29Q558.05,936.44,539,933c-18.76-3.38-37.37-6.88-56-10.79s-37.58-7-56.56-9.19c-13.92-1.61-28.18-3.35-42.2-3.35-30.89-1.43-62.46-1.65-92.86,4.78-16.12,3.4-33.56,8.87-45.51,20.82,1.47-1.48,4.39-1.25,6.33-1.47q3.63-.4,7.27-.73a265,265,0,0,1,28.87-1.21q7.57.12,15.13.71c26.49,2,51.67,9.08,76.85,17L492.78,985.2c7.3,2.31,15-2.64,21.57-5.65A313.62,313.62,0,0,0,548.31,961.47Z"/><path class="cls-1" d="M204.93,812.57H217.7l9.77,60H218l-1.71-11.91v.17H205.61l-1.71,11.74h-8.74Zm10.28,40.1L211,823h-.17l-4.11,29.65Z"/><path class="cls-1" d="M256.86,821.14H247v-8.57h29.14v8.57h-9.85v51.41h-9.43Z"/><path class="cls-1" d="M302.11,812.57h9.42V864H327v8.57H302.11Z"/><path class="cls-1" d="M360.64,812.57h12.77l9.77,60h-9.43L372,860.64v.17H361.32l-1.71,11.74h-8.74Zm10.28,40.1L366.72,823h-.17l-4.11,29.65Z"/><path class="cls-1" d="M409.14,812.57H421l9.17,35.9h.17v-35.9h8.4v60H429l-11.31-43.79h-.17v43.79h-8.4Z"/><path class="cls-1" d="M474.53,821.14h-9.86v-8.57h29.14v8.57H484v51.41h-9.42Z"/><path class="cls-1" d="M519.77,812.57h9.43v60h-9.43Z"/><path class="cls-1" d="M560.61,869.55q-3.55-3.85-3.56-10.88V826.45q0-7,3.56-10.88t10.32-3.86q6.78,0,10.33,3.86t3.56,10.88v6.34H575.9v-6.94q0-5.57-4.71-5.57t-4.71,5.57v33.51q0,5.48,4.71,5.48t4.71-5.48v-9.17h8.92v8.48q0,7-3.56,10.88t-10.33,3.86Q564.17,873.41,560.61,869.55Z"/><path class="cls-1" d="M794.64,869.51q-3.6-3.9-3.6-11.18V812.57h9.43V859c0,2.06.41,3.55,1.24,4.46a5.3,5.3,0,0,0,7.11,0,6.53,6.53,0,0,0,1.25-4.46V812.57h9.08v45.76q0,7.27-3.6,11.18t-10.45,3.9Q798.24,873.41,794.64,869.51Z"/><path class="cls-1" d="M847.26,812.57h14c4.85,0,8.4,1.12,10.62,3.38s3.35,5.73,3.35,10.41v3.69q0,9.35-6.17,11.82v.18a7.34,7.34,0,0,1,4.84,4.19,21.26,21.26,0,0,1,1.41,8.49v10.54c0,1.71.06,3.1.17,4.16a10.46,10.46,0,0,0,.86,3.12h-9.6a13.52,13.52,0,0,1-.68-2.74,40,40,0,0,1-.17-4.63v-11c0-2.74-.45-4.65-1.33-5.74s-2.42-1.63-4.59-1.63h-3.25v25.71h-9.43Zm12.85,25.71a5.69,5.69,0,0,0,4.25-1.46q1.41-1.46,1.41-4.89v-4.62a7.64,7.64,0,0,0-1.16-4.72,4.36,4.36,0,0,0-3.64-1.45h-4.28v17.14Z"/></svg>