<svg id="Capa_1" data-name="Capa 1" xmlns="http://www.w3.org/2000/svg" viewBox="0 0 1080 1080"><defs><style>.cls-1{font-size:78.88px;font-family:RestoraExtraLight, Restora;}.cls-1,.cls-10,.cls-11,.cls-6,.cls-9{stroke:#fff;}.cls-1,.cls-10,.cls-11,.cls-12,.cls-6,.cls-9{stroke-miterlimit:10;}.cls-2{letter-spacing:-0.02em;}.cls-3{letter-spacing:-0.02em;}.cls-4{letter-spacing:0em;}.cls-5{letter-spacing:-0.01em;}.cls-6{font-size:28.4px;font-family:Axiforma-Bold, Axiforma;font-weight:700;letter-spacing:0.59em;}.cls-7{letter-spacing:0.6em;}.cls-8{letter-spacing:0.6em;}.cls-9{stroke-width:3px;}.cls-10{fill:#1d1d1b;stroke-width:2px;}.cls-11,.cls-12{fill:none;stroke-width:5px;}.cls-12{stroke:#1d1d1b;}</style></defs><text class="cls-1" transform="translate(52.44 746.18)">Mai<tspan class="cls-2" x="129.29" y="0">t</tspan><tspan class="cls-3" x="160.61" y="0">y</tspan><tspan class="cls-4" x="206.36" y="0" xml:space="preserve"> Ri</tspan><tspan class="cls-5" x="303.15" y="0">n</tspan><tspan x="349.92" y="0">cón</tspan></text><text class="cls-6" transform="translate(52.44 802.73)">P<tspan class="cls-7" x="35.05" y="0">si</tspan><tspan class="cls-8" x="90.87" y="0">c</tspan><tspan class="cls-7" x="124.98" y="0">ólogo Clíni</tspan><tspan class="cls-8" x="464.81" y="0">c</tspan><tspan class="cls-7" x="498.92" y="0">o</tspan></text><path class="cls-9" d="M440.69,596.57,411.46,324.69c-2.21-29.23-1.65-49.64,16-49.64v-7.72H362.93L252.08,599.88,126.34,273.4c-1.65-3.31-4.41-6.07-12.13-6.07H79.47v7.72c6.61,0,8.27,4.41,10.48,10.48L99.87,317l-21,279.6c-2.21,25.92-8.83,49.08-26.48,49.08v7.72h65.63v-7.72c-16.54,0-19.3-13.24-18.2-49.08l10.48-246L197.48,572.3c19.86,56.25,41.37,81.07,41.37,81.07h10.48l120.22-353.5,32.54,300.56c2.2,20.4-4.42,45.22-21.51,45.22v7.72h87.13v-7.72C449.51,645.65,442.9,615.32,440.69,596.57Z"/><path class="cls-9" d="M891.34,729.34c0,.06-.54.22-.59.24a12.45,12.45,0,0,1-1.79.48,22,22,0,0,1-3,.37,28.84,28.84,0,0,1-4.26-.12,39.69,39.69,0,0,1-5.53-.95,54.53,54.53,0,0,1-6.82-2.16,76.21,76.21,0,0,1-8.12-3.72,108.65,108.65,0,0,1-9.45-5.65c-3.72-2.48-7.31-5.14-10.79-7.94-4.2-3.36-8.24-6.91-12.17-10.58-4.67-4.38-9.18-8.93-13.56-13.6q-7.72-8.26-15-17-8.46-10.14-16.4-20.71-9.2-12.19-17.84-24.8Q756.1,608.79,746.72,594,736,577.11,725.91,559.89C718,546.45,710.2,533,702.79,519.22q-5.32-9.89-10.45-19.9c-3.27-6.4-5.75-13.2-8.39-19.88q-1.14-2.93-2.27-5.85c37.5-23.17,75.56-82.18,75.56-119.13,0-55.14-43.57-87.13-99.82-87.13h-150v7.72c18.2,0,27,32,27,49.64V596.57c0,17.64-8.83,49.08-27,49.08v7.72h92.1v-7.72c-17.09,0-26.47-31.44-26.47-49.08V534.25c9.93-3.31,48-23.16,70-36.4,2.2,5,4.37,9.75,6.52,14.43a.25.25,0,0,1,0,.07C652,517,778.51,761,892.11,741.41ZM573,515.5V320.27c0-17.64,14.89-33.09,32-33.09h36.4c49.63,0,72.24,35.85,72.24,66.73C713.67,424,633.15,488.48,573,515.5Z"/><path class="cls-10" d="M1003.11,490.49a98.48,98.48,0,0,0-28.48,0,99.43,99.43,0,0,0-6.56-42.4l-1.16-3-3,1a99.38,99.38,0,0,0-35.95,22A100.53,100.53,0,0,0,899.53,413l-2.26-2.23L895,413A100.7,100.7,0,0,0,865,468.5a99.39,99.39,0,0,0-34.5-22l-3-1.12-1.24,2.94a99.4,99.4,0,0,0-7.57,43.3,98.89,98.89,0,0,0-30.67,0l-3.14.5.37,3.16c3.4,28.66,19.45,54.82,44,71.76a102.62,102.62,0,0,0,58.28,18.47c2.68,0,5.36-.12,8-.34,2.62.21,5.23.33,7.84.33A103.15,103.15,0,0,0,970,560.74c20.4-17.26,33.17-40.92,36-66.62l.34-3.16Zm-40.09-37a93.12,93.12,0,0,1,4.89,38.16,104.17,104.17,0,0,0-41.39,19.15,105.62,105.62,0,0,0,2.88-28.22c-.06-2.07-.21-4.11-.39-6.15A93.29,93.29,0,0,1,963,453.51ZM870,490.81c-.07-2.23,0-4.45,0-6.67a99.6,99.6,0,0,1,10.17,16.61,98.56,98.56,0,0,1,9.71,36.7,103.66,103.66,0,0,0-14.57-17.51A98.43,98.43,0,0,1,870,490.81Zm52.84-7.12a98.41,98.41,0,0,1-5.56,35.13,105,105,0,0,0-15.05,18.1,99.51,99.51,0,0,1,20.61-53.23Zm-33.61,72.66a92.12,92.12,0,0,1-5.07,20.08c-21.23-8.83-38.54-25.37-49-46.86a99,99,0,0,1-9-29.73A98.13,98.13,0,0,1,858,514.32a100,100,0,0,1,11.58,9.32A99.71,99.71,0,0,0,889.18,556.35Zm4.17,22A91.29,91.29,0,0,1,896,566a91.09,91.09,0,0,1,2.78,12.18c-1,.12-2.07.21-3.1.3C894.9,578.45,894.13,578.4,893.35,578.31Zm9.31-22.59A100.16,100.16,0,0,0,923,522.46q1.75-1.63,3.6-3.21a98,98,0,0,1,40.48-20.58,99.29,99.29,0,0,1-6.26,22.58c-10.17,24.84-29.64,44.17-53.72,53.47A92.46,92.46,0,0,1,902.66,555.72Zm-5.51-135.65a94.45,94.45,0,0,1,25,54.08A106,106,0,0,0,896,531.92a106.11,106.11,0,0,0-25.26-57.32A94.73,94.73,0,0,1,897.15,420.07Zm-66,33.81a93,93,0,0,1,32.64,22.89,107.22,107.22,0,0,0-.5,14.25,105.86,105.86,0,0,0,2.8,21c-1.43-1.09-2.88-2.15-4.37-3.17a104.59,104.59,0,0,0-36.32-16A93.16,93.16,0,0,1,831.19,453.88Zm-38.9,43.83a92.31,92.31,0,0,1,27,.69,105.67,105.67,0,0,0,9.93,34.05A102.53,102.53,0,0,0,871,577.35a97.42,97.42,0,0,1-37.89-15.76C811,546.36,796.25,523.22,792.29,497.71Zm173.4,58A97.51,97.51,0,0,1,916.27,578a103,103,0,0,0,50.67-54.21,106,106,0,0,0,7-26.48,92,92,0,0,1,25-.66C995.64,519.38,983.93,540.25,965.69,555.69Z"/><circle class="cls-11" cx="895.58" cy="498.16" r="131.97"/><circle class="cls-12" cx="895.58" cy="498.16" r="128.56"/></svg>