<svg id="Capa_1" data-name="Capa 1" xmlns="http://www.w3.org/2000/svg" xmlns:xlink="http://www.w3.org/1999/xlink" viewBox="0 0 1080 1080"><defs><style>.cls-1{fill:none;}.cls-1,.cls-3,.cls-4{stroke:#000;stroke-miterlimit:10;stroke-width:0.25px;}.cls-2{clip-path:url(#clip-path);}.cls-3{fill:#101010;}.cls-4{fill:#f6f6f6;}.cls-5{fill:#24a72e;}.cls-6{fill:#ffb31d;}</style><clipPath id="clip-path"><path class="cls-1" d="M402.56,595.88s27.85,33,167.66,11.53c0,0,151.26-41.08,212.89,36.38l-46.78,14.94L740.66,680c1.68,8.24,4.86,17.51,5.14,25.82-14.24-9.06-27.84-18.08-43.47-24.76a217.15,217.15,0,0,0-48.45-14.35c-41.35-7.12-83.9-3.64-125.52-8.28-7.91-.88-15.8-2-23.65-3.26-20.13-3.34-40.09-8.27-59-15.91a118.34,118.34,0,0,1-31.14-18.23c-8.76-7.23-19.23-17.47-23.35-28.29C394.91,593.23,398.87,594.84,402.56,595.88Z"/></clipPath></defs><path d="M487.48,686.91l-38.61-53.18,574-79.69,6.24-182.83L623,427.56l-3.65-11.06c-7.31-22.14-30.18-59.25-71.28-75.89l39.68-21.27-.56-.24L652.73,284,606,269.46c-1-.32-25.55-7.8-58.45-7.8-31.16,0-71.1,6.63-106,33.17A76.2,76.2,0,0,0,428.41,268c-15-19.37-38.36-29.19-69.49-29.19a172.4,172.4,0,0,0-20,1.23l-27.83,3.28,14.85,32.81-.34.07,14.71,32.09q-2.16-.12-4.38-.12c-26.65,0-54.14,12.91-81.69,38.37L227,371.67l58.72,16,.59-.24,20.21,5.29c-10.11,11.83-18.68,28.23-23.42,50.59l-6.86,32.37L50.88,506.93l18,179.55,230.26-32L383,841.17l25.38-152.66M301.11,471.67l-.07.55-1.37.2Z"/><g class="cls-2"><path class="cls-3" d="M545.75,540.58q1.63-12.84,3.11-25.71c-11.44-3.1-24-4-36.83-3.44q-1.62,13-3.38,25.92C521.56,536.64,534.15,537.5,545.75,540.58Z"/><path class="cls-4" d="M577.22,557.44q1.34-12.86,2.55-25.71c-8.71-8.31-19.26-13.71-30.91-16.86q-1.47,12.86-3.11,25.71A73.25,73.25,0,0,1,577.22,557.44Z"/><path class="cls-3" d="M577.22,557.44c.72.67,1.44,1.34,2.14,2,9.47,9.56,17.56,17.84,24.94,24.76q1.2-11,2.67-21.92c-6.74-7-14-15.42-22.25-25.31a64,64,0,0,0-5-5.29Q578.56,544.6,577.22,557.44Z"/><path class="cls-4" d="M633.61,605.07q.76-11.49,1.92-22.06c-9.65-3.39-18.57-10.38-28.56-20.68q-1.47,10.95-2.67,21.92C614.89,594.18,624,601.25,633.61,605.07Z"/><path class="cls-3" d="M766.36,568a129.32,129.32,0,0,1,25.44-1.86c1.09-9.16,2.36-17.69,3.67-25.37a127.17,127.17,0,0,0-24.71.77C769.14,549.87,767.62,558.76,766.36,568Z"/><path class="cls-4" d="M508.65,537.35q1.75-12.95,3.38-25.92a217.62,217.62,0,0,0-36.47,5.07q-1.77,12.25-3.76,26.48A210.82,210.82,0,0,1,508.65,537.35Z"/><path class="cls-4" d="M442,525.84c-11.64,3.87-22.42,8.06-31.68,11.94q-1.92,13.17-4,28.05c9.12-4.08,19.74-8.49,31.26-12.61Q439.88,538.49,442,525.84Z"/><path class="cls-3" d="M410.31,537.78c-5.95,2.49-11.27,4.87-15.8,7l-2.65,27.86c4.2-2.05,9.08-4.35,14.48-6.77Q408.38,551,410.31,537.78Z"/><path class="cls-3" d="M633.61,605.07c9.36,3.72,19.21,4.36,31.36,1.51q1.42-12.51,3.21-24.43c-12.78,4-23.08,4.22-32.65.86Q634.38,593.57,633.61,605.07Z"/><path class="cls-3" d="M475.56,516.5A335.83,335.83,0,0,0,442,525.84q-2.1,12.66-4.39,27.38A325.2,325.2,0,0,1,471.8,543Q473.79,528.73,475.56,516.5Z"/><path class="cls-4" d="M730.51,578.35A178.29,178.29,0,0,1,766.36,568c1.26-9.23,2.78-18.12,4.4-26.46a157.93,157.93,0,0,0-35.5,8.92C733.5,559.34,731.87,568.71,730.51,578.35Z"/><path class="cls-4" d="M701.79,591.77c1-9.28,2-18.34,3.2-27-.35.21-.71.4-1.06.6-14,8.11-25.67,13.65-35.75,16.82q-1.77,11.91-3.21,24.43C675.23,604.2,687.14,599.32,701.79,591.77Z"/><path class="cls-3" d="M703.9,590.69a280.32,280.32,0,0,1,26.61-12.34c1.36-9.64,3-19,4.75-27.9A207.56,207.56,0,0,0,705,564.73c-1.16,8.7-2.25,17.76-3.2,27C702.5,591.41,703.18,591.08,703.9,590.69Z"/><path class="cls-3" d="M662.7,630.56c10.2-1.68,22.08-5.76,36.9-12.52.57-8.87,1.32-17.66,2.19-26.27-14.65,7.55-26.56,12.43-36.82,14.81Q663.64,618.34,662.7,630.56Z"/><path class="cls-4" d="M662.7,630.56q.91-12.21,2.27-24c-12.15,2.85-22,2.21-31.36-1.51-.47,7.17-.83,14.61-1,22.32C641.7,631.25,651.13,632.45,662.7,630.56Z"/><path class="cls-3" d="M508.65,537.35A210.82,210.82,0,0,0,471.8,543c-1.14,8.24-2.34,17-3.59,26.27a205.73,205.73,0,0,1,36.92-6.18Q506.92,550.21,508.65,537.35Z"/><path class="cls-4" d="M763.66,594.32a128.82,128.82,0,0,1,25.82-2.7c.56-8.92,1.37-17.45,2.32-25.49A129.32,129.32,0,0,0,766.36,568C765.2,576.54,764.26,585.37,763.66,594.32Z"/><path class="cls-3" d="M602.16,606.51c11.3,9.65,20.7,16.77,30.41,20.88.21-7.71.57-15.15,1-22.32-9.6-3.82-18.72-10.89-29.31-20.82Q603.07,595.37,602.16,606.51Z"/><path class="cls-3" d="M437.6,553.22c-11.52,4.12-22.14,8.53-31.26,12.61q-1.81,13.27-3.71,27.88c9-4.29,19.5-9,30.92-13.32Q435.62,566,437.6,553.22Z"/><path class="cls-3" d="M574,582l.59.51q.69-6.48,1.39-13c.42-4,.85-8,1.26-12.07a73.25,73.25,0,0,0-31.47-16.86q-1.61,12.7-3.26,25.38A77.08,77.08,0,0,1,574,582Z"/><path class="cls-4" d="M542.49,566q1.63-12.69,3.26-25.38c-11.6-3.08-24.19-3.94-37.1-3.23q-1.72,12.87-3.52,25.72C518,562.2,530.7,563,542.49,566Z"/><path class="cls-3" d="M727.47,605.61a207.07,207.07,0,0,1,36.19-11.29c.6-9,1.54-17.78,2.7-26.33a178.29,178.29,0,0,0-35.85,10.36C729.23,587.26,728.19,596.4,727.47,605.61Z"/><path class="cls-4" d="M574.57,582.47c10.68,9.16,19.61,17.22,27.59,24q.92-11.14,2.14-22.26c-7.38-6.92-15.47-15.2-24.94-24.76-.7-.71-1.42-1.38-2.14-2-.41,4-.84,8-1.26,12.07Q575.27,576,574.57,582.47Z"/><path class="cls-4" d="M471.8,543a325.2,325.2,0,0,0-34.2,10.24q-2,12.81-4.05,27.17a316.65,316.65,0,0,1,34.66-11.14C469.46,560,470.66,551.22,471.8,543Z"/><path class="cls-4" d="M701.79,591.77c-.87,8.61-1.62,17.4-2.19,26.27,1.41-.64,2.81-1.28,4.27-2,8.06-3.82,15.9-7.34,23.6-10.45.72-9.21,1.76-18.35,3-27.26a280.32,280.32,0,0,0-26.61,12.34C703.18,591.08,702.5,591.41,701.79,591.77Z"/><path class="cls-4" d="M406.34,565.83c-5.4,2.42-10.28,4.72-14.48,6.77l-2.64,27.78c3.93-2,8.45-4.3,13.41-6.67Q404.51,579.13,406.34,565.83Z"/><path class="cls-4" d="M726.44,627.47c0,1.53,0,3,0,4.57,12.7-5,24.7-9.1,36.53-11.72,0-.86,0-1.72-.06-2.59-.07-7.81.2-15.65.73-23.41a207.07,207.07,0,0,0-36.19,11.29C726.91,612.88,726.54,620.19,726.44,627.47Z"/><path class="cls-3" d="M402.63,593.71c-5,2.37-9.48,4.63-13.41,6.67l-2.65,27.68c3.74-2,8-4.29,12.61-6.65Q400.92,607,402.63,593.71Z"/><path class="cls-3" d="M468.21,569.25a316.65,316.65,0,0,0-34.66,11.14q-1.85,12.83-3.73,26.91a308.36,308.36,0,0,1,34.92-12Q466.54,581.62,468.21,569.25Z"/><path class="cls-3" d="M762.93,617.73c0,.87,0,1.73.06,2.59a127.87,127.87,0,0,1,25.6-3.18c0-8.76.36-17.3.89-25.52a128.82,128.82,0,0,0-25.82,2.7C763.13,602.08,762.86,609.92,762.93,617.73Z"/><path class="cls-4" d="M433.55,580.39c-11.42,4.37-21.92,9-30.92,13.32q-1.71,13.32-3.45,27.7c8.88-4.53,19.29-9.46,30.64-14.11Q431.71,593.21,433.55,580.39Z"/><path class="cls-3" d="M699.6,618c-.47,7.23-.83,14.51-1,21.79,0,1.28-.06,2.55-.08,3.82,1.75-.71,3.52-1.43,5.36-2.22,7.83-3.36,15.33-6.53,22.61-9.39,0-1.52-.05-3,0-4.57.1-7.28.47-14.59,1-21.86-7.7,3.11-15.54,6.63-23.6,10.45C702.41,616.76,701,617.4,699.6,618Z"/><path class="cls-4" d="M661.9,642.44q-.31,5.65-.28,11.77c10.12-1.12,22-4.52,36.87-10.56,0-1.27,0-2.54.08-3.82.2-7.28.56-14.56,1-21.79-14.82,6.76-26.7,10.84-36.9,12.52C662.4,634.49,662.12,638.45,661.9,642.44Z"/><path class="cls-4" d="M632.41,650c0-1.73-.06-3.46-.06-5.16,0-6,.07-11.8.22-17.48-9.71-4.11-19.11-11.23-30.41-20.88q-.92,11.28-1.47,22.59C612.74,638.54,622.47,645.72,632.41,650Z"/><path class="cls-3" d="M600.69,629.1q.54-11.33,1.47-22.59c-8-6.82-16.91-14.88-27.59-24Q573.25,594.71,572,607C583.21,615.25,592.5,622.7,600.69,629.1Z"/><path class="cls-4" d="M505.13,563.07a205.73,205.73,0,0,0-36.92,6.18q-1.66,12.38-3.47,26a200.82,200.82,0,0,1,36.88-6.73Q503.35,575.8,505.13,563.07Z"/><path class="cls-3" d="M632.41,650a54.91,54.91,0,0,0,29.21,4.18q0-6.11.28-11.77c.22-4,.5-8,.8-11.88-11.57,1.89-21,.69-30.13-3.17-.15,5.68-.23,11.49-.22,17.48C632.35,646.57,632.38,648.3,632.41,650Z"/><path class="cls-3" d="M539.33,591.05q1.53-12.54,3.16-25.09c-11.79-3-24.45-3.76-37.36-2.89q-1.77,12.73-3.51,25.47C514.55,587.52,527.31,588.12,539.33,591.05Z"/><path class="cls-4" d="M568.62,604.44,572,607q1.22-12.26,2.53-24.5L574,582a77.08,77.08,0,0,0-31.49-16q-1.62,12.54-3.16,25.09A81.94,81.94,0,0,1,568.62,604.44Z"/><path class="cls-4" d="M414.56,509.6c-6.61,2.6-12.5,5.07-17.39,7.22l-2.66,27.92c4.53-2.09,9.85-4.47,15.8-7Q412.53,522.51,414.56,509.6Z"/><path class="cls-4" d="M548.86,514.87c1-8.7,1.92-17.4,2.71-26.12-11.29-3-23.69-3.94-36.5-3.44q-1.41,13.06-3,26.12C524.91,510.84,537.42,511.77,548.86,514.87Z"/><path class="cls-4" d="M584.72,537c8.28,9.89,15.51,18.34,22.25,25.31.95-7.2,2-14.39,3.09-21.59a299.48,299.48,0,0,1-20-26.19,61.62,61.62,0,0,0-8-9.38q-1,13.29-2.29,26.56A64,64,0,0,1,584.72,537Z"/><path class="cls-3" d="M512,511.43q1.62-13.06,3-26.12a226.38,226.38,0,0,0-35.59,4.53q-1.8,12-3.92,26.66A217.62,217.62,0,0,1,512,511.43Z"/><path class="cls-4" d="M475.56,516.5q2.12-14.7,3.92-26.66c-11.24,2.29-22.29,5.23-32.7,8.44q-2.22,12.29-4.79,27.56A335.83,335.83,0,0,1,475.56,516.5Z"/><path class="cls-3" d="M548.86,514.87c11.65,3.15,22.2,8.55,30.91,16.86q1.23-13.26,2.29-26.56c-8.48-8.08-18.9-13.34-30.49-16.42C550.78,497.47,549.86,506.17,548.86,514.87Z"/><path class="cls-4" d="M735.26,550.45c2-10.15,4.18-19.68,6.31-28.3a166.29,166.29,0,0,0-32.39,14.63c-1.43,8.71-2.86,18.1-4.19,28A207.56,207.56,0,0,1,735.26,550.45Z"/><path class="cls-3" d="M635.53,583q1.25-11.44,2.88-21.84c-9.94-2.73-18.83-9.62-28.35-20.43-1.09,7.2-2.14,14.39-3.09,21.59C617,572.63,625.88,579.62,635.53,583Z"/><path class="cls-3" d="M770.76,541.53c1.89-9.66,3.92-18.56,5.87-26.37a146.22,146.22,0,0,0-35.06,7c-2.13,8.62-4.31,18.15-6.31,28.3A157.93,157.93,0,0,1,770.76,541.53Z"/><path class="cls-4" d="M668.18,582.15c1.29-8.65,2.71-17,4.2-25.13-13.41,5.48-24.21,6.82-34,4.15q-1.63,10.4-2.88,21.84C645.1,586.37,655.4,586.18,668.18,582.15Z"/><path class="cls-3" d="M703.93,565.33c.35-.2.71-.39,1.06-.6,1.33-9.85,2.76-19.24,4.19-28q-2.64,1.54-5.22,3.18c-12.09,7.68-22.45,13.33-31.58,17.06-1.49,8.08-2.91,16.48-4.2,25.13C678.26,579,689.88,573.44,703.93,565.33Z"/><path class="cls-3" d="M446.78,498.28c-11.8,3.63-22.77,7.6-32.22,11.32q-2,12.89-4.25,28.18c9.26-3.88,20-8.07,31.68-11.94Q444.54,510.57,446.78,498.28Z"/><path class="cls-4" d="M770.76,541.53a127.17,127.17,0,0,1,24.71-.77c1.69-9.86,3.46-18.36,5-25.1a126.38,126.38,0,0,0-23.84-.5C774.68,523,772.65,531.87,770.76,541.53Z"/><path class="cls-3" d="M741.57,522.15c2.42-9.77,4.8-18.35,6.84-25.33-12.58,4.1-24.2,10.62-35.26,17.5-1.28,6.77-2.63,14.32-4,22.46A166.29,166.29,0,0,1,741.57,522.15Z"/><path class="cls-4" d="M704,540q2.58-1.63,5.22-3.18c1.34-8.14,2.69-15.69,4-22.46-12.75,7.92-24.76,16.3-36.64,21.95q-2.13,10-4.13,20.75C681.51,553.29,691.87,547.64,704,540Z"/><path class="cls-3" d="M672.38,557q2-10.77,4.13-20.75a68.69,68.69,0,0,1-19,6.23c-6.78,1-11.74.52-15.57-1.17q-1.91,9.4-3.54,19.84C648.17,563.84,659,562.5,672.38,557Z"/><path class="cls-4" d="M515.07,485.31q1.2-11.13,2.2-22.29a285.86,285.86,0,0,0-34.56,5.83c-1,6.17-2,13.15-3.23,21A226.38,226.38,0,0,1,515.07,485.31Z"/><path class="cls-4" d="M776.63,515.16c2.24-9.06,4.38-16.65,6-22.24a81.6,81.6,0,0,0-34.27,3.9c-2,7-4.42,15.56-6.84,25.33A146.22,146.22,0,0,1,776.63,515.16Z"/><path class="cls-3" d="M800.47,515.66c2.5-11,4.4-17.3,4.4-17.3a86,86,0,0,0-22.19-5.44c-1.67,5.59-3.81,13.18-6,22.24A126.38,126.38,0,0,1,800.47,515.66Z"/><path class="cls-4" d="M638.41,561.17Q640,550.73,642,541.33c-12.66-5.61-12.87-24.18-24.9-42.62-2.5,14.05-4.86,28.05-7,42C619.58,551.55,628.47,558.44,638.41,561.17Z"/><path class="cls-4" d="M446.78,498.28q2.12-11.64,3.9-20.61c-12.84,4.08-24.17,8.32-32.92,11.82q-1.5,9.15-3.2,20.11C424,505.88,435,501.91,446.78,498.28Z"/><path class="cls-3" d="M479.48,489.84c1.18-7.84,2.26-14.82,3.23-21-11.25,2.58-22.1,5.66-32,8.82q-1.79,9-3.9,20.61C457.19,495.07,468.24,492.13,479.48,489.84Z"/><path class="cls-3" d="M515.07,485.31c12.81-.5,25.21.44,36.5,3.44q1.17-12.9,1.94-25.82a169.6,169.6,0,0,0-36.24.09Q516.28,474.18,515.07,485.31Z"/><path class="cls-3" d="M417.76,489.49c-11.65,4.66-18.75,8-18.75,8l-1.84,19.3c4.89-2.15,10.78-4.62,17.39-7.22Q416.26,498.65,417.76,489.49Z"/><path class="cls-3" d="M590.1,514.55a299.48,299.48,0,0,0,20,26.19c2.13-14,4.49-28,7-42-6.37-9.77-16.06-19.5-32.69-27.23q-1,16.86-2.3,33.69A61.62,61.62,0,0,1,590.1,514.55Z"/><path class="cls-4" d="M582.06,505.17q1.35-16.83,2.3-33.69-2.76-1.29-5.77-2.49a98.25,98.25,0,0,0-25.08-6.06q-.75,12.92-1.94,25.82C563.16,491.83,573.58,497.09,582.06,505.17Z"/><path class="cls-3" d="M740.32,705.14c12.83-4.55,24.28-8.37,36-10.37-2.21-8.17-4.42-16.21-6.4-24.38-11.65,2.38-23.35,6.35-36.3,11C735.69,689.41,738,697.3,740.32,705.14Z"/><path class="cls-3" d="M422.15,668.61c.33-2.82.65-5.6,1-8.36-11.2,5.22-21.42,10.74-30.16,15.81-.85,8.57-1.55,17.44-2.15,26.51,8.65-5.33,18.71-11.1,29.74-16.55C421,680,421.52,674.12,422.15,668.61Z"/><path class="cls-4" d="M568.16,655.08c-.45,7.95-.81,15.9-1,23.86a382.78,382.78,0,0,1,34.27,20q-.88-11.86-1.25-23.64C591.27,669.22,580.94,662.39,568.16,655.08Z"/><path class="cls-3" d="M600.18,675.26q.36,11.78,1.25,23.64c14.51,9.38,25.17,17.06,36.7,21.61-.86-8-1.72-16-2.51-23.75C624.62,692.25,614.12,684.71,600.18,675.26Z"/><path class="cls-4" d="M635.62,696.76c.79,7.79,1.65,15.71,2.51,23.75,9,3.56,18.53,5.21,30.83,4.26-1.32-7.93-2.54-15.84-3.58-23.6C653.74,702.07,644.51,700.41,635.62,696.76Z"/><path class="cls-4" d="M393,676.06c-4.24,2.47-8.15,4.83-11.64,7l-2.59,27.28c3.62-2.41,7.67-5,12.08-7.77C391.42,693.5,392.12,684.63,393,676.06Z"/><path class="cls-4" d="M701.43,693c1.15,8.39,2.58,16.34,4.16,24,13.09-4,24.37-8.15,34.73-11.83-2.34-7.84-4.63-15.73-6.65-23.71-9.19,3.34-19,7-29.88,10.73Z"/><path class="cls-3" d="M665.38,701.17c1,7.76,2.26,15.67,3.58,23.6,9.57-.74,20.81-3,34.8-7.23l1.83-.57c-1.58-7.67-3-15.62-4.16-24C686.83,697.78,675.23,700.39,665.38,701.17Z"/><path class="cls-3" d="M495.28,638.67a189,189,0,0,0-37.12,7.86c-.12.83-.22,1.65-.32,2.49-.95,7.55-1.69,15.07-2.3,22.54a182.18,182.18,0,0,1,37.19-8.26Q493.87,651,495.28,638.67Z"/><path class="cls-3" d="M557.88,649.38a93.49,93.49,0,0,0-23.29-8.67q-.78,12.33-1.19,24.66a100.19,100.19,0,0,1,19.11,6.49c5.23,2.39,10.09,4.75,14.65,7.08.19-8,.55-15.91,1-23.86C564.9,653.22,561.48,651.31,557.88,649.38Z"/><path class="cls-4" d="M495.28,638.67q-1.39,12.3-2.55,24.63a122,122,0,0,1,40.67,2.07q.42-12.33,1.19-24.66A120.68,120.68,0,0,0,495.28,638.67Z"/><path class="cls-4" d="M457.84,649c.1-.84.2-1.66.32-2.49a283.55,283.55,0,0,0-35,13.72c-.33,2.76-.65,5.54-1,8.36-.63,5.51-1.16,11.34-1.59,17.41a267.52,267.52,0,0,1,35-14.46C456.15,664.09,456.89,656.57,457.84,649Z"/><path class="cls-4" d="M776.37,694.77a100.89,100.89,0,0,1,19.93-1.46c-1.89-8.43-3.39-16.91-4.53-25.34a111.63,111.63,0,0,0-21.8,2.42C772,678.56,774.16,686.6,776.37,694.77Z"/><path class="cls-4" d="M536.57,615.94q.58-6.12,1.27-12.28t1.49-12.61c-12-2.93-24.78-3.53-37.71-2.51q-1.71,12.6-3.33,25.21A120.19,120.19,0,0,1,536.57,615.94Z"/><path class="cls-4" d="M464.74,595.27a308.36,308.36,0,0,0-34.92,12q-1.72,12.8-3.47,26.63a295.67,295.67,0,0,1,35-12.88Q463.12,607.61,464.74,595.27Z"/><path class="cls-4" d="M572,607q-1.2,12.06-2.2,24.14c11.88,7.71,21.63,14.75,30.15,20.91q.13-11.49.7-22.92C592.5,622.7,583.21,615.25,572,607Z"/><path class="cls-4" d="M632.41,650c.14,7.55.53,15.28,1.11,23.15a58.55,58.55,0,0,0,29.24,4.48c-.7-8.17-1.1-16-1.14-23.45A54.91,54.91,0,0,1,632.41,650Z"/><path class="cls-3" d="M572,607l-3.42-2.53a81.94,81.94,0,0,0-29.29-13.39q-.76,6.32-1.49,12.61t-1.27,12.28a87.51,87.51,0,0,1,26.68,11q3.4,2.15,6.59,4.2Q570.83,619.05,572,607Z"/><path class="cls-3" d="M600.69,629.1q-.56,11.43-.7,22.92c13,9.4,23.13,16.73,33.53,21.16-.58-7.87-1-15.6-1.11-23.15C622.47,645.72,612.74,638.54,600.69,629.1Z"/><path class="cls-3" d="M501.62,588.54a200.82,200.82,0,0,0-36.88,6.73q-1.62,12.36-3.35,25.78a193.9,193.9,0,0,1,36.9-7.3Q499.9,601.14,501.62,588.54Z"/><path class="cls-4" d="M698.49,643.65c-.15,8.79,0,17.06.52,24.92,1.58-.57,3.16-1.14,4.8-1.77,8.78-3.37,17-6.61,24.81-9.56a179.87,179.87,0,0,1-2.16-25.2c-7.28,2.86-14.78,6-22.61,9.39C702,642.22,700.24,642.94,698.49,643.65Z"/><path class="cls-3" d="M662.76,677.66c9.93-.85,21.58-3.76,36.25-9.09-.47-7.86-.67-16.13-.52-24.92-14.91,6-26.75,9.44-36.87,10.56C661.66,661.63,662.06,669.49,662.76,677.66Z"/><path class="cls-4" d="M399.18,621.41c-4.64,2.36-8.87,4.61-12.61,6.65L384,655.63c3.58-2.09,7.6-4.37,12-6.76Q397.56,634.71,399.18,621.41Z"/><path class="cls-3" d="M429.82,607.3c-11.35,4.65-21.76,9.58-30.64,14.11q-1.62,13.29-3.24,27.46c8.82-4.79,19.13-10,30.41-14.94Q428.09,620.09,429.82,607.3Z"/><path class="cls-3" d="M728.62,657.24c12.89-4.86,24.78-8.94,36.47-11.55a205.28,205.28,0,0,1-2.1-25.37c-11.83,2.62-23.83,6.71-36.53,11.72A179.87,179.87,0,0,0,728.62,657.24Z"/><path class="cls-4" d="M765.09,645.69a122,122,0,0,1,24.2-3.08c-.52-8.63-.74-17.15-.7-25.47a127.87,127.87,0,0,0-25.6,3.18A205.28,205.28,0,0,0,765.09,645.69Z"/><path class="cls-4" d="M541.77,716.81c-2.91-1-5.83-1.75-8.74-2.46q.18,11.56.6,23.17c2.57.43,5.14.9,7.74,1.45a96.38,96.38,0,0,1,28.73,11.61c-.47-7.88-1-15.77-1.51-23.65C560.7,723.5,551.84,720.1,541.77,716.81Z"/><path class="cls-4" d="M753.06,752.67a204.43,204.43,0,0,1,3.28,22.48A124,124,0,0,1,789.1,775a262.9,262.9,0,0,0-2.21-30.93C775,745.15,764.58,748.51,753.06,752.67Z"/><path class="cls-4" d="M489.47,711.64a167.78,167.78,0,0,0-35.8,8q0,11.34.36,22.34a194.73,194.73,0,0,1,35.13-6.26c-.1-6.42-.07-12.86.13-19.35C489.34,714.8,489.41,713.22,489.47,711.64Z"/><path class="cls-3" d="M489.47,711.64c-.06,1.58-.13,3.16-.18,4.74-.2,6.49-.23,12.93-.13,19.35a179.61,179.61,0,0,1,44.47,1.79q-.4-11.61-.6-23.17A126.34,126.34,0,0,0,489.47,711.64Z"/><path class="cls-3" d="M810.9,744.94a98.42,98.42,0,0,0-24-.88A262.9,262.9,0,0,1,789.1,775a127.45,127.45,0,0,1,31.26,8.31S818.56,772.37,810.9,744.94Z"/><path class="cls-3" d="M568.59,726.93c.51,7.88,1,15.77,1.51,23.65,14,8.2,26.67,18.79,40.37,27.72-1-10.35-2.33-20.71-3.65-31A270.89,270.89,0,0,0,568.59,726.93Z"/><path class="cls-3" d="M642.47,768c.56,8.48,1,17.06,1.11,25.73a83.79,83.79,0,0,0,27.18,2.38,98.92,98.92,0,0,0,11.43-1.57c-1.4-7.1-2.88-14.49-4.38-22.08C663,773.65,652.21,771.83,642.47,768Z"/><path class="cls-4" d="M606.82,747.26c1.32,10.33,2.63,20.69,3.65,31,10.14,6.62,20.86,12.31,33.11,15.45-.15-8.67-.55-17.25-1.11-25.73C630.74,763.42,620.56,755.92,606.82,747.26Z"/><path class="cls-4" d="M703.7,768.27a182.64,182.64,0,0,1-25.89,4.21c1.5,7.59,3,15,4.38,22.08,12.37-2.39,25-6.82,38.48-11-1.15-6.33-2.45-12.51-3.85-18.65C712.7,766.09,708.34,767.22,703.7,768.27Z"/><path class="cls-3" d="M716.82,764.94c1.4,6.14,2.7,12.32,3.85,18.65,11.26-3.49,23.06-6.75,35.67-8.44a204.43,204.43,0,0,0-3.28-22.48C742.55,756.47,731.13,760.92,716.82,764.94Z"/><path class="cls-3" d="M373.6,764.29l-1.92,20.18A167.27,167.27,0,0,1,388.49,772c0-6.21.14-12.46.26-18.7C383.14,757.13,378.05,760.88,373.6,764.29Z"/><path class="cls-3" d="M419,734.76c0,6.63,0,13.34.11,20.07A220.53,220.53,0,0,1,454,742q-.34-11-.36-22.34A230.58,230.58,0,0,0,419,734.76Z"/><path class="cls-4" d="M388.75,753.26c-.12,6.24-.22,12.49-.26,18.7a237.53,237.53,0,0,1,30.6-17.13c-.09-6.73-.13-13.44-.11-20.07A309.73,309.73,0,0,0,388.75,753.26Z"/><path class="cls-4" d="M490.75,687.61q-.81,12-1.28,24A126.34,126.34,0,0,1,533,714.35q-.22-12.24-.13-24.44A123.92,123.92,0,0,0,490.75,687.61Z"/><path class="cls-4" d="M567.36,702.94c.28,8,.73,16,1.23,24a270.89,270.89,0,0,1,38.23,20.33c-1-8.13-2.1-16.23-3-24.3A320.07,320.07,0,0,0,567.36,702.94Z"/><path class="cls-3" d="M703.73,742.91a176.94,176.94,0,0,1-30.55,5.62c1.52,8.11,3.08,16.13,4.63,24a182.64,182.64,0,0,0,25.89-4.21c4.64-1,9-2.18,13.12-3.33-1.83-8-3.82-16-5.78-24.06C708.67,741.56,706.25,742.24,703.73,742.91Z"/><path class="cls-4" d="M786.89,744.06a98.42,98.42,0,0,1,24,.88c-2.08-7.43-4.58-16.06-7.59-26a95,95,0,0,0-20.82.33C784.22,727.07,785.74,735.27,786.89,744.06Z"/><path class="cls-4" d="M711,740.88c2,8.09,4,16,5.78,24.06,14.31-4,25.73-8.47,36.24-12.27-1.63-8.11-3.64-16-5.83-23.91C736.63,732.51,725,736.84,711,740.88Z"/><path class="cls-3" d="M747.23,728.76c2.19,7.86,4.2,15.8,5.83,23.91,11.52-4.16,21.94-7.52,33.83-8.61-1.15-8.79-2.67-17-4.4-24.8C770.59,720.76,759.58,724.38,747.23,728.76Z"/><path class="cls-4" d="M389.49,728.29c-4.89,3.21-9.37,6.3-13.34,9.13l-2.55,26.87c4.45-3.41,9.54-7.16,15.15-11C388.92,744.9,389.17,736.56,389.49,728.29Z"/><path class="cls-4" d="M640.56,744.3c.73,7.82,1.4,15.72,1.91,23.72,9.74,3.81,20.55,5.63,35.34,4.46-1.55-7.82-3.11-15.84-4.63-24C659.86,749.57,649.82,747.89,640.56,744.3Z"/><path class="cls-3" d="M547.14,694.33a108.1,108.1,0,0,0-14.24-4.42q-.09,12.2.13,24.44c2.91.71,5.83,1.49,8.74,2.46,10.07,3.29,18.93,6.69,26.82,10.12-.5-8-1-16-1.23-24C561.23,700.08,554.53,697.2,547.14,694.33Z"/><path class="cls-3" d="M454.1,695.91q-.44,12-.43,23.74a167.78,167.78,0,0,1,35.8-8q.46-12,1.28-24A175.66,175.66,0,0,0,454.1,695.91Z"/><path class="cls-3" d="M603.78,723c.94,8.07,2,16.17,3,24.3,13.74,8.66,23.92,16.16,35.65,20.76-.51-8-1.18-15.9-1.91-23.72C628.75,739.74,618.21,732.07,603.78,723Z"/><path class="cls-4" d="M419.35,710.8c-.24,7.8-.35,15.82-.37,24a230.58,230.58,0,0,1,34.69-15.11q0-11.71.43-23.74A250.36,250.36,0,0,0,419.35,710.8Z"/><path class="cls-3" d="M389.49,728.29c-.32,8.27-.57,16.61-.74,25A309.73,309.73,0,0,1,419,734.76c0-8.14.13-16.16.37-24A337.09,337.09,0,0,0,389.49,728.29Z"/><path class="cls-4" d="M426.35,633.93c-11.28,4.94-21.59,10.15-30.41,14.94q-1.19,10.46-2.37,21.37c-.21,1.92-.41,3.87-.6,5.82,8.74-5.07,19-10.59,30.16-15.81Q424.75,646.65,426.35,633.93Z"/><path class="cls-3" d="M498.29,613.75q-1.59,12.45-3,24.92a120.68,120.68,0,0,1,39.31,2q.78-12.37,2-24.77A120.19,120.19,0,0,0,498.29,613.75Z"/><path class="cls-3" d="M569.84,631.11q-1,12-1.68,24c12.78,7.31,23.11,14.14,32,20.18q-.33-11.65-.19-23.24C591.47,645.86,581.72,638.82,569.84,631.11Z"/><path class="cls-4" d="M563.25,626.91a87.51,87.51,0,0,0-26.68-11q-1.2,12.4-2,24.77a93.49,93.49,0,0,1,23.29,8.67c3.6,1.93,7,3.84,10.28,5.7q.69-12,1.68-24Q566.66,629.06,563.25,626.91Z"/><path class="cls-4" d="M665.38,701.17c9.85-.78,21.45-3.39,36-8.21-1.07-7.72-1.9-15.81-2.42-24.39-14.67,5.33-26.32,8.24-36.25,9.09C663.4,685.27,664.3,693.15,665.38,701.17Z"/><path class="cls-3" d="M633.52,673.18c.56,7.71,1.29,15.58,2.1,23.58,8.89,3.65,18.12,5.31,29.76,4.41-1.08-8-2-15.9-2.62-23.51A58.55,58.55,0,0,1,633.52,673.18Z"/><path class="cls-4" d="M600,652q-.13,11.58.19,23.24c13.94,9.45,24.44,17,35.44,21.5-.81-8-1.54-15.87-2.1-23.58C623.12,668.75,613,661.42,600,652Z"/><path class="cls-3" d="M461.39,621.05a295.67,295.67,0,0,0-35,12.88q-1.61,12.72-3.22,26.32a283.55,283.55,0,0,1,35-13.72Q459.79,633.33,461.39,621.05Z"/><path class="cls-4" d="M733.67,681.43c13-4.69,24.65-8.66,36.3-11-1.93-8-3.63-16.12-4.88-24.7-11.69,2.61-23.58,6.69-36.47,11.55C729.9,665.48,731.65,673.52,733.67,681.43Z"/><path class="cls-4" d="M498.29,613.75a193.9,193.9,0,0,0-36.9,7.3q-1.59,12.27-3.23,25.48a189,189,0,0,1,37.12-7.86Q496.69,626.19,498.29,613.75Z"/><path class="cls-3" d="M393.57,670.24q1.19-10.92,2.37-21.37c-4.39,2.39-8.41,4.67-12,6.76l-2.62,27.43c3.49-2.17,7.4-4.53,11.64-7C393.16,674.11,393.36,672.16,393.57,670.24Z"/><path class="cls-3" d="M699,668.57c.52,8.58,1.35,16.67,2.42,24.39l2.36-.8c10.88-3.71,20.69-7.39,29.88-10.73-2-7.91-3.77-15.95-5-24.19-7.83,3-16,6.19-24.81,9.56C702.17,667.43,700.59,668,699,668.57Z"/><path class="cls-3" d="M770,670.39a111.63,111.63,0,0,1,21.8-2.42c-1.16-8.52-2-17-2.48-25.36a122,122,0,0,0-24.2,3.08C766.34,654.27,768,662.4,770,670.39Z"/><path class="cls-4" d="M420.56,686c-11,5.45-21.09,11.22-29.74,16.55-.53,8.43-1,17-1.33,25.72a337.09,337.09,0,0,1,29.86-17.49C419.6,702.21,420,693.91,420.56,686Z"/><path class="cls-4" d="M567.16,678.94c-4.56-2.33-9.42-4.69-14.65-7.08a100.19,100.19,0,0,0-19.11-6.49q-.42,12.27-.5,24.54a108.1,108.1,0,0,1,14.24,4.42c7.39,2.87,14.09,5.75,20.22,8.61-.28-7.9-.4-15.8-.21-23.73C567.15,679.12,567.16,679,567.16,678.94Z"/><path class="cls-3" d="M492.73,663.3q-1.14,12.13-2,24.31a123.92,123.92,0,0,1,42.15,2.3q.09-12.28.5-24.54A122,122,0,0,0,492.73,663.3Z"/><path class="cls-3" d="M420.56,686c-.57,7.89-1,16.19-1.21,24.78a250.36,250.36,0,0,1,34.75-14.89q.47-12,1.44-24.35A267.52,267.52,0,0,0,420.56,686Z"/><path class="cls-3" d="M782.49,719.26a95,95,0,0,1,20.82-.33c-.58-1.92-1.17-3.87-1.79-5.89-2-6.53-3.73-13.12-5.22-19.73a100.89,100.89,0,0,0-19.93,1.46C778.5,702.69,780.61,710.75,782.49,719.26Z"/><path class="cls-4" d="M455.54,671.56q-1,12.29-1.44,24.35a175.66,175.66,0,0,1,36.65-8.3q.83-12.17,2-24.31A182.18,182.18,0,0,0,455.54,671.56Z"/><path class="cls-4" d="M601.43,698.9q.24,3.2.52,6.39c.51,5.88,1.14,11.77,1.83,17.67,14.43,9.11,25,16.78,36.78,21.34-.76-8-1.59-16-2.43-23.79C626.6,716,615.94,708.28,601.43,698.9Z"/><path class="cls-4" d="M703.76,717.54c-14,4.19-25.23,6.49-34.8,7.23,1.32,7.93,2.75,15.88,4.22,23.76a176.94,176.94,0,0,0,30.55-5.62c2.52-.67,4.94-1.35,7.31-2-1.89-7.77-3.75-15.68-5.45-23.91Z"/><path class="cls-3" d="M601.43,698.9a382.78,382.78,0,0,0-34.27-20c0,.09,0,.18,0,.27-.19,7.93-.07,15.83.21,23.73a320.07,320.07,0,0,1,36.42,20c-.69-5.9-1.32-11.79-1.83-17.67Q601.67,702.1,601.43,698.9Z"/><path class="cls-3" d="M638.13,720.51c.84,7.83,1.67,15.76,2.43,23.79,9.26,3.59,19.3,5.27,32.62,4.23-1.47-7.88-2.9-15.83-4.22-23.76C656.66,725.72,647.13,724.07,638.13,720.51Z"/><path class="cls-3" d="M705.59,717c1.7,8.23,3.56,16.14,5.45,23.91,14-4,25.59-8.37,36.19-12.12-2.2-7.92-4.57-15.77-6.91-23.62C730,708.82,718.68,713,705.59,717Z"/><path class="cls-4" d="M747.23,728.76c12.35-4.38,23.36-8,35.26-9.5-1.88-8.51-4-16.57-6.12-24.49-11.77,2-23.22,5.82-36,10.37C742.66,713,745,720.84,747.23,728.76Z"/><path class="cls-3" d="M390.82,702.57c-4.41,2.74-8.46,5.36-12.08,7.77l-2.59,27.08c4-2.83,8.45-5.92,13.34-9.13C389.84,719.6,390.29,711,390.82,702.57Z"/></g><path class="cls-1" d="M402.56,595.88s27.85,33,167.66,11.53c0,0,151.26-41.08,212.89,36.38l-46.78,14.94L740.66,680c1.68,8.24,4.86,17.51,5.14,25.82-14.24-9.06-27.84-18.08-43.47-24.76a217.15,217.15,0,0,0-48.45-14.35c-41.35-7.12-83.9-3.64-125.52-8.28-7.91-.88-15.8-2-23.65-3.26-20.13-3.34-40.09-8.27-59-15.91a118.34,118.34,0,0,1-31.14-18.23c-8.76-7.23-19.23-17.47-23.35-28.29C394.91,593.23,398.87,594.84,402.56,595.88Z"/><path class="cls-5" d="M444.36,440.87l5.31-22.56,13.27,34.95L501,478.92l-1.33-26.55,20.79,40L544.34,507s-14.52-77.42-75.28-104l8.55,1-4.16-20.5,24.66,23.59,45,7.53L538.89,393l28.46,25.84L600.9,424S571.11,333.73,472,358.21l-18.58-9.8h41l47.75-25.59-23.6-10.32,47.63-3.1,34.66-18.58S485.28,255,423.64,347.3c0,0,25.36-97.33-79.93-84.94l7.74,17.11,25.88,9.88-19.9,3.83,13,28.31L399,333.44l-21.82,2.65L385,352.91S343.71,295.76,270.93,363l16.26,4.42L314,356.59l-13.27,14.05L329,378.05l30.64-11.61-14.82,15.37,18.91,5.2s-44.72-.85-57.92,61.46L318.38,442l12.17-19.25-1.77,14,22.12-11.95,12.83-20.46-1.55,14.27L389,404.48l3.87,2Z"/><path class="cls-5" d="M403.11,412.57s-29.77,68.35-24.17,107.52c0,0-11.84,6.33-15.78,10.55l-11.65,2.11s4.67-63.21,42.11-126.37Z"/><path class="cls-5" d="M396.42,608.37s11.56,32.48,29.31,60.55c0,0-41,1.51-45.13,28.62,0,0-22.44-63.44-21.06-73.35,0,0,24.22-5.09,26.28-15.82Z"/><polygon class="cls-6" points="392.59 532.75 401.38 532.75 415.77 519.16 392.59 532.75"/><polygon class="cls-6" points="415.03 531.01 433.4 512.5 443.25 510.37 422.33 531.28 415.03 531.01"/><polygon class="cls-6" points="482.72 529.19 502.9 508.85 509.81 509.66 490.01 529.47 482.72 529.19"/><path class="cls-6" d="M447.46,530.17c0,.15,17.21-16.82,17.21-16.82L463,530Z"/><path class="cls-6" d="M491.76,506.86c0-.17-19.66,19.23-19.66,19.23l1.94-19Z"/><polygon class="cls-6" points="515.47 527.57 529.43 514.15 546.84 522.68 544.37 527.57 515.47 527.57"/><path class="cls-6" d="M100.3,534.34l-22.69,3.79-.19-18.9,64.89-8.6L142.17,529l-22.4,2.89L118,647.26l-19.26,2.06Z"/><path class="cls-6" d="M237.67,561.75l-25.42-60.17,20.05-2.44,15.38,37.22,14.9-41.51,20.26-2.58L258.49,560.1l25,64.71-20.61,2.86L247,585.49l-18.51,47-20.46,2.48Z"/><path class="cls-6" d="M653.06,553.44A32.33,32.33,0,0,1,645,576.13a32.65,32.65,0,0,1-9.53,7.35,28.37,28.37,0,0,1-12,3.08,42.73,42.73,0,0,1-11.3-1.1,27.09,27.09,0,0,1-10.5-4.91,28.69,28.69,0,0,1-7.92-9.67q-3.21-6.07-3.57-15.55l-3-75.81A34,34,0,0,1,589,466.86,29.58,29.58,0,0,1,595,456.55a30.06,30.06,0,0,1,9.75-7.07,33.15,33.15,0,0,1,12.76-2.92A31.23,31.23,0,0,1,630,448.49a29.58,29.58,0,0,1,10.18,6.37,31.29,31.29,0,0,1,7,10.19,36.09,36.09,0,0,1,2.91,13.15l.3,7.74-19.43.77-.26-6.58a16.19,16.19,0,0,0-3.64-9.93,10.43,10.43,0,0,0-8.93-3.91q-7.25.29-9.45,4.92a24.62,24.62,0,0,0-1.92,11.61l2.77,70.39a18.5,18.5,0,0,0,3,10q2.73,4,9.4,3.7A13.88,13.88,0,0,0,626,566a10.8,10.8,0,0,0,6.7-6.75,17.66,17.66,0,0,0,.88-6.82l-.27-6.77,19.43-.76Z"/><path class="cls-6" d="M162.81,508.43l15.83-2,30.68,129.15-20.93,1.69-5.53-26.8-25.6,3.28L150,642.62l-19.54,2.48Zm8,36.81-10,49.79,19.61-2.35"/><path class="cls-6" d="M688.39,442.19l15.83-2,30.69,129.15L714,571l-5.53-26.81-25.6,3.28-7.27,28.88L656,578.86Zm8,36.81-9.95,49.8,19.61-2.35"/><path class="cls-6" d="M528.69,567.68A20.35,20.35,0,1,0,549,588,20.34,20.34,0,0,0,528.69,567.68Zm0,28.26A7.92,7.92,0,1,1,536.6,588,7.92,7.92,0,0,1,528.69,595.94Z"/><path class="cls-6" d="M359.77,567.68A20.35,20.35,0,1,0,380.12,588,20.35,20.35,0,0,0,359.77,567.68Zm0,28.26a7.92,7.92,0,1,1,7.91-7.92A7.92,7.92,0,0,1,359.77,595.94Z"/><path class="cls-6" d="M298.11,593.08s.48-1.88,1.84-2.17c0,0,.95-9.22,1.07-9.81a45.74,45.74,0,0,1,8.4-19.3c.25-.32.54-.58.79-.88l0-72.36-19,2.23-1.86,133.05,20.92-1.9,0-22.52h-5.59S297.56,600.1,298.11,593.08Z"/><path class="cls-6" d="M565,526.07l5.23-10.52H546.76c-23.82-9.28-49.33-14.43-74.95-13.45a161.26,161.26,0,0,0-56.2,12.42,151.23,151.23,0,0,0-24.24,13q-5.76,3.78-11.2,8a19.6,19.6,0,0,1-4,2.45,26,26,0,0,1-7.32,1.82,195.33,195.33,0,0,0-34.37,7.75c-8.9,2.87-18,6.12-24.27,13.41l0,38.5h22.91c-.21-.8-.39-1.61-.53-2.43a30.23,30.23,0,0,1,4.3-21.73,26.62,26.62,0,0,1,17.86-12c15-2.61,29.47,8.26,32.25,24.24a31.09,31.09,0,0,1-.24,11.9H502.23c-.2-.8-.38-1.61-.53-2.43-2.77-16,7.17-31.1,22.17-33.71s29.47,8.26,32.25,24.24a31,31,0,0,1-.18,11.65c27.58-5.93,18.56-20.12,18.56-20.12C596.93,549.6,565,526.07,565,526.07Zm-56.3,38.79h-9.95v9.79H489v-9.79H479v9.79h-9.79v-9.79h-10v9.79h-9.79v-9.79h-10v9.95h-10v-10h-9.79v10h-9.95v-9.95h-10v9.79h-9.79v-9.79h-9.95v-10h9.95v10h9.79v-10h10v9.94h9.95v-9.79h9.79v9.79h10v-9.94h10v10h9.79v-10h10v10H479v-10h10v10h9.79v-10h9.95Zm37.38-29.17-160.55,3.86s31.19-30.46,80.92-31.93h1.81s53.69-4,82.72,18.81Zm6.69-.6,2.2-6.88,12.39,2.55,4.06,3.78,5.5,7.36L563.45,541Zm19.27,40.18H561.13l-3.48-5.36h15.91Z"/><path class="cls-6" d="M461.29,485.57h26.88a1.73,1.73,0,0,1,1.73,1.73v9.62a0,0,0,0,1,0,0H459.55a0,0,0,0,1,0,0V487.3A1.73,1.73,0,0,1,461.29,485.57Z"/><path class="cls-6" d="M825.34,424.59l18.95-2.24.11,133.38-20.92,1.9Z"/><path class="cls-6" d="M743.78,434.82l34.63-4.12c21.13,0,30.91,12.34,30.91,37.23a55.81,55.81,0,0,1-4.59,20.65c-2.29,5.3-6.91,9.09-12.66,12.31l19.47,58.28L791,562l-16.49-54.8-11.83,1-1.77,57.29-19.08,1.83Zm18,57.07c4.91-.57,10-.75,14.87-1.81,5.21-1.14,9.58-4,11.2-9.24a53.53,53.53,0,0,0,1.88-17.64,20,20,0,0,0-2-8.9,9.08,9.08,0,0,0-6.31-4.77c-3.28-.5-6.51-.17-9.81-.17h-9Z"/><path class="cls-6" d="M864,419.74c7.84-.93,15.68-1.95,23.54-2.78,6.6-.69,13-1.3,19.52.55a25.39,25.39,0,0,1,13.52,9.11c3.88,5.24,5.2,11.9,5.64,18.28.09,1.25.14,2.5.16,3.76a49.11,49.11,0,0,1-.88,11.42,26.07,26.07,0,0,1-6.2,12.13c-1.89,2.07-4.13,3.38-6.31,5.06,2.62,1.58,5,2.8,7.18,5.14,4.06,4.44,5.74,10.26,6.3,16.17a75.64,75.64,0,0,1-.32,14.19c-.6,6.25-1.57,12.47-4.49,18.1a35.76,35.76,0,0,1-11,12.69,33.6,33.6,0,0,1-6.51,3.6c-7.72,3.21-16.25,3.34-24.45,4.19l-13.93,1.44c-.22,0-4,.34-4,.42Zm18.47,52.79c0-.17,7.5-.66,8.22-.74,7.14-.77,13.53-4.24,15.89-11.34a32.3,32.3,0,0,0,1.2-11.51,26.46,26.46,0,0,0-1-6.81,11.11,11.11,0,0,0-3.71-5.68c-2.64-2-6.11-2.31-9.32-2.23a89.19,89.19,0,0,0-11.18,1.16c-.49.07-.08,18.73-.09,20.13C882.48,461.17,882.27,466.87,882.44,472.53Zm0,59.21c0,.16,4.9-.42,5.3-.44a23.14,23.14,0,0,0,6.34-1.07,19.17,19.17,0,0,0,9.94-7.87,15.34,15.34,0,0,0,1.28-2.83c1.75-4.69,1.89-9.75,2-14.69a34.84,34.84,0,0,0-.68-8.47,11.08,11.08,0,0,0-3.76-6.34,12.33,12.33,0,0,0-7.75-2c-4.18.09-8.4.66-12.57,1C882.55,489,882.48,531.59,882.48,531.74Z"/><path class="cls-6" d="M943.85,410l57.59-7v17.62l-38.18,4.74-.21,39.64,33.3-4.2-.14,17.41-33.09,4.54-.34,39.42,37.08-4.7v18.44L942.1,543Z"/></svg>